# xmcd CD database file
#
# Track frame offsets:
#	150
#	24567
#	56107
#	77135
#	97255
#	120412
#	124812
#	147807
#	171927
#	207902
#	228157
#	268960
#
# Disc length: 3786 seconds
#
# Revision: 1
# Processed by: cddbd v1.5.2PL0 Copyright (c) Steve Scherf et al.
# Submitted via: jetAudio 7
#
DISCID=ac0ec80c
DTITLE=Patricia Barber - Cafe Blue
DYEAR=1994
DGENRE=Jazz
TTITLE0=Patricia Barber - What A Shame
TTITLE1=Patricia Barber - Mourning Grace
TTITLE2=Patricia Barber - The Thrill Is Gone
TTITLE3=Patricia Barber - Romanesque
TTITLE4=Patricia Barber - Yellow Car III
TTITLE5=Patricia Barber - Wood Is A Pleasant Thing To Think About
TTITLE6=Patricia Barber - Inch Worm
TTITLE7=Patricia Barber - Ode To Billy Joe
TTITLE8=Patricia Barber - Too Rich For My Blood
TTITLE9=Patricia Barber - A Taste Of Honey
TTITLE10=Patricia Barber - Nardis
TTITLE11=Patricia Barber - Manha De Carnaval
EXTD=YEAR: 1994
EXTT0=
EXTT1=
EXTT2=
EXTT3=
EXTT4=
EXTT5=
EXTT6=
EXTT7=
EXTT8=
EXTT9=
EXTT10=
EXTT11=
PLAYORDER=
